<svg id="visual" viewBox="0 0 900 600" width="900" height="600" xmlns="http://www.w3.org/2000/svg" xmlns:xlink="http://www.w3.org/1999/xlink" version="1.1"><rect x="0" y="0" width="900" height="600" fill="#001220"></rect><defs><linearGradient id="grad1_0" x1="33.3%" y1="100%" x2="100%" y2="0%"><stop offset="20%" stop-color="#001220" stop-opacity="1"></stop><stop offset="80%" stop-color="#001220" stop-opacity="1"></stop></linearGradient></defs><defs><linearGradient id="grad2_0" x1="0%" y1="100%" x2="66.7%" y2="0%"><stop offset="20%" stop-color="#001220" stop-opacity="1"></stop><stop offset="80%" stop-color="#001220" stop-opacity="1"></stop></linearGradient></defs><g transform="translate(900, 600)"><path d="M-270.4 0C-245.7 -28.8 -220.9 -57.6 -205.1 -85C-189.3 -112.3 -182.4 -138.3 -168.3 -168.3C-154.2 -198.2 -132.7 -232.2 -103.5 -249.8C-74.2 -267.5 -37.1 -269 0 -270.4L0 0Z" fill="#FBAE3C"></path></g><g transform="translate(0, 0)"><path d="M270.4 0C267.2 35.5 264 71 249.8 103.5C235.6 136 210.4 165.5 181 181C151.6 196.5 118.1 198.1 87.3 210.6C56.4 223.2 28.2 246.8 0 270.4L0 0Z" fill="#FBAE3C"></path></g></svg>