<svg id="visual" viewBox="0 0 900 600" width="900" height="600" xmlns="http://www.w3.org/2000/svg" xmlns:xlink="http://www.w3.org/1999/xlink" version="1.1"><rect x="0" y="0" width="900" height="600" fill="#001122"></rect><path d="M0 505L21.5 503.3C43 501.7 86 498.3 128.8 497.3C171.7 496.3 214.3 497.7 257.2 482C300 466.3 343 433.7 385.8 421.7C428.7 409.7 471.3 418.3 514.2 416.8C557 415.3 600 403.7 642.8 414.8C685.7 426 728.3 460 771.2 459C814 458 857 422 878.5 404L900 386L900 601L878.5 601C857 601 814 601 771.2 601C728.3 601 685.7 601 642.8 601C600 601 557 601 514.2 601C471.3 601 428.7 601 385.8 601C343 601 300 601 257.2 601C214.3 601 171.7 601 128.8 601C86 601 43 601 21.5 601L0 601Z" fill="#6600FF" stroke-linecap="round" stroke-linejoin="miter"></path></svg>